<?xml version="1.0"?>
<svg xmlns="http://www.w3.org/2000/svg" height="512px" viewBox="0 0 496 496" width="512px"><path d="m496 0h-496v432h35.230469c10.203125 36.839844 43.9375 64 83.976562 64 15.160157 0 30.128907-3.976562 43.273438-11.496094l85.519531-48.863281 85.511719 48.863281c13.152343 7.519532 28.121093 11.496094 43.28125 11.496094 40.039062 0 73.773437-27.160156 83.976562-64h35.230469zm-16 16v48h-464v-48zm-32 392.792969c0 39.261719-31.945312 71.207031-71.207031 71.207031-12.378907 0-24.59375-3.238281-35.335938-9.382812l-77.328125-44.183594 16.117188-9.210938 69.152344 39.503906c8.3125 4.761719 17.785156 7.273438 27.394531 7.273438 30.4375 0 55.207031-24.769531 55.207031-55.207031v-1.578125c0-30.445313-24.769531-55.214844-55.207031-55.214844-9.601563 0-19.082031 2.511719-27.402344 7.273438l-194.847656 111.34375c-10.734375 6.144531-22.957031 9.382812-35.335938 9.382812-39.261719 0-71.207031-31.945312-71.207031-71.207031v-1.578125c0-39.269532 31.945312-71.214844 71.207031-71.214844 12.378907 0 24.59375 3.238281 35.335938 9.382812l77.328125 44.183594-16.117188 9.21875-69.152344-39.511718c-8.3125-4.761719-17.785156-7.273438-27.394531-7.273438-30.4375 0-55.207031 24.769531-55.207031 55.207031v1.578125c0 30.445313 24.769531 55.214844 55.207031 55.214844 9.601563 0 19.082031-2.511719 27.402344-7.273438l194.839844-111.34375c10.742187-6.144531 22.964843-9.382812 35.34375-9.382812 39.261719 0 71.207031 31.945312 71.207031 71.207031zm-151.632812-.792969 60.960937-34.832031c5.902344-3.375 12.640625-5.167969 19.464844-5.167969 21.613281 0 39.207031 17.59375 39.207031 39.207031v1.578125c0 21.621094-17.59375 39.214844-39.207031 39.214844-6.824219 0-13.554688-1.792969-19.464844-5.167969zm-96.734376 0-60.960937 34.832031c-5.902344 3.375-12.640625 5.167969-19.464844 5.167969-21.613281 0-39.207031-17.59375-39.207031-39.207031v-1.578125c0-21.621094 17.59375-39.214844 39.207031-39.214844 6.824219 0 13.554688 1.792969 19.464844 5.167969zm264 8c.199219-2.382812.367188-4.777344.367188-7.207031v-1.578125c0-48.085938-39.128906-87.214844-87.207031-87.214844-15.160157 0-30.128907 3.976562-43.273438 11.496094l-85.519531 48.863281-85.511719-48.863281c-13.152343-7.519532-28.121093-11.496094-43.28125-11.496094-48.078125 0-87.207031 39.128906-87.207031 87.207031v1.578125c0 2.4375.167969 4.832032.367188 7.214844h-16.367188v-336h464v336zm0 0" fill="#FFFFFF"/><path d="m32 304h208v-208h-208zm16-192h176v176h-176zm0 0" fill="#FFFFFF"/><path d="m64 128h144v16h-144zm0 0" fill="#FFFFFF"/><path d="m64 160h112v16h-112zm0 0" fill="#FFFFFF"/><path d="m192 160h16v16h-16zm0 0" fill="#FFFFFF"/><path d="m96 192h112v16h-112zm0 0" fill="#FFFFFF"/><path d="m64 192h16v16h-16zm0 0" fill="#FFFFFF"/><path d="m64 224h144v16h-144zm0 0" fill="#FFFFFF"/><path d="m64 256h112v16h-112zm0 0" fill="#FFFFFF"/><path d="m256 304h208v-208h-208zm16-192h176v176h-176zm0 0" fill="#FFFFFF"/><path d="m288 128h144v16h-144zm0 0" fill="#FFFFFF"/><path d="m288 160h16v16h-16zm0 0" fill="#FFFFFF"/><path d="m320 160h112v16h-112zm0 0" fill="#FFFFFF"/><path d="m288 192h144v16h-144zm0 0" fill="#FFFFFF"/><path d="m288 224h144v16h-144zm0 0" fill="#FFFFFF"/><path d="m288 256h112v16h-112zm0 0" fill="#FFFFFF"/><path d="m32 32h16v16h-16zm0 0" fill="#FFFFFF"/><path d="m64 32h16v16h-16zm0 0" fill="#FFFFFF"/><path d="m96 32h16v16h-16zm0 0" fill="#FFFFFF"/><path d="m416 256h16v16h-16zm0 0" fill="#FFFFFF"/><path d="m192 256h16v16h-16zm0 0" fill="#FFFFFF"/></svg>
