<?xml version="1.0"?>
<svg xmlns="http://www.w3.org/2000/svg" height="512px" viewBox="0 -10 512 512" width="512px"><path d="m176 432c-5.519531 0-10 4.480469-10 10s4.480469 10 10 10 10-4.480469 10-10-4.480469-10-10-10zm0 0" fill="#FFFFFF"/><path d="m482 146h-176v-136c0-5.523438-4.476562-10-10-10h-80c-5.523438 0-10 4.476562-10 10v136h-176c-16.832031 0-30 13.761719-30 30v286c0 16.574219 13.46875 30 30 30h452c16.476562 0 30-13.371094 30-30v-286c0-16.589844-13.511719-30-30-30zm-462 31.953125 166.621094 148.808594-166.621094 134.375zm181.742188 162.308594 20.480468 18.285156c9.246094 8.464844 21.238282 13.128906 33.777344 13.128906 12.535156 0 24.527344-4.664062 33.777344-13.128906l20.480468-18.285156 163.355469 131.738281h-435.226562zm123.636718-13.5 166.621094-148.808594v283.183594zm-99.378906-306.761719h60v176c0 5.523438 4.476562 10 10 10h19.195312l-59.195312 73.992188-59.195312-73.992188h19.195312c5.523438 0 10-4.476562 10-10zm-20 166h-30c-3.84375 0-7.347656 2.203125-9.011719 5.667969-1.667969 3.464843-1.199219 7.578125 1.203125 10.578125l80 100c1.898438 2.371094 4.773438 3.753906 7.808594 3.753906 3.039062 0 5.910156-1.382812 7.808594-3.753906l80-100c2.402344-3 2.871094-7.113282 1.207031-10.578125-1.667969-3.464844-5.171875-5.667969-9.015625-5.667969h-30v-20h169.359375l-198.949219 177.671875c-.035156.027344-.070312.0625-.105468.09375-11.574219 10.628906-29.035157 10.628906-40.609376 0-.035156-.03125-.070312-.0625-.105468-.09375l-198.949219-177.671875h169.359375zm0 0" fill="#FFFFFF"/><path d="m336 432h-120c-5.523438 0-10 4.476562-10 10s4.476562 10 10 10h120c5.523438 0 10-4.476562 10-10s-4.476562-10-10-10zm0 0" fill="#FFFFFF"/></svg>
