<?xml version="1.0"?>
<svg xmlns="http://www.w3.org/2000/svg" height="512px" viewBox="-94 0 512 512.00037" width="512px"><path d="m213.332031 170.667969c0-4.714844-3.820312-8.535157-8.53125-8.535157-4.714843 0-8.535156 3.820313-8.535156 8.535157v9.300781c0 4.710938 3.820313 8.53125 8.535156 8.53125 4.710938 0 8.53125-3.820312 8.53125-8.53125zm0 0" fill="#000"/><path d="m156.101562 210.832031c3.386719 3.273438 8.789063 3.179688 12.066407-.207031 3.191406-3.308594 3.191406-8.550781 0-11.859375l-4.183594-4.179687 5.785156-11.570313c2.109375-4.21875.394531-9.347656-3.820312-11.453125-4.21875-2.105469-9.347657-.394531-11.453125 3.824219l-8.535156 17.066406c-1.636719 3.285156-.992188 7.25 1.605468 9.847656zm0 0" fill="#000"/><path d="m162.132812 0c-65.949218.0703125-119.394531 53.515625-119.464843 119.464844v207.363281c-25.273438 7.566406-42.605469 30.792969-42.667969 57.171875v119.46875c0 4.710938 3.820312 8.53125 8.535156 8.53125h307.199219c4.710937 0 8.53125-3.820312 8.53125-8.53125v-119.46875c-.058594-26.378906-17.390625-49.609375-42.664063-57.171875v-207.363281c-.070312-65.949219-53.515624-119.3945315-119.46875-119.464844zm-102.398437 119.464844c0-56.550782 45.84375-102.398438 102.398437-102.398438 56.554688 0 102.402344 45.847656 102.402344 102.398438v35.707031c-2.734375-1.011719-5.621094-1.542969-8.535156-1.570313h-13.535156l-19.070313-19.074218c-7.671875-7.667969-14.054687-16.523438-18.902343-26.230469l-17.613282-35.3125c-2.511718-4.214844-7.972656-5.597656-12.1875-3.082031-1.269531.753906-2.328125 1.816406-3.085937 3.082031l-7.058594 14.054687c-11.652344 23.234376-28.523437 43.453126-49.296875 59.078126l-35.035156 26.257812c-.15625.117188-.230469.296875-.375.425781-.449219.398438-.847656.851563-1.195313 1.339844-.324219.398437-.613281.824219-.855469 1.28125-.21875.476563-.390624.972656-.519531 1.484375-.175781.554688-.289062 1.125-.339843 1.707031 0 .203125-.121094.375-.121094.578125v25.601563c.039062 29.136719 16.566406 55.742187 42.667968 68.691406v50.78125h-59.742187zm102.398437 281.601562c-23.550781-.027344-42.636718-19.113281-42.664062-42.667968v-17.066407h85.332031v17.066407c-.027343 23.554687-19.113281 42.640624-42.667969 42.667968zm8.535157 25.601563c0 4.710937-3.820313 8.53125-8.535157 8.53125-4.710937 0-8.53125-3.820313-8.53125-8.53125 0-4.714844 3.820313-8.535157 8.53125-8.535157 4.714844 0 8.535157 3.820313 8.535157 8.535157zm17.066406-110.933594v8.53125h-51.199219v-8.53125zm-51.199219-17.066406v-19.046875c5.59375 1.296875 11.320313 1.960937 17.066406 1.980468h17.066407c5.742187-.019531 11.46875-.683593 17.066406-1.980468v19.046875zm34.132813-34.132813h-17.066407c-32.972656-.042968-59.691406-26.761718-59.734374-59.734375v-21.332031l17.066406-12.800781v9.300781c0 4.710938 3.820312 8.53125 8.535156 8.53125 4.710938 0 8.53125-3.820312 8.53125-8.53125v-9.300781c-.027344-3.808594-2.605469-7.121094-6.289062-8.082031l3.78125-2.832032c22.519531-16.941406 40.886718-38.789062 53.707031-63.882812l10.027343 20.0625c5.667969 11.34375 13.132813 21.695312 22.101563 30.660156l19.070313 19.070312v39.136719c-.039063 32.972657-26.757813 59.691407-59.730469 59.734375zm34.132812 8.957032c23.347657-11.605469 39.21875-34.253907 42.164063-60.160157h9.035156c2.914062-.027343 5.800781-.558593 8.535156-1.570312v112.503906h-59.734375zm51.199219-77.226563h-8.53125v-25.597656h8.53125c4.714844 0 8.535156 3.820312 8.535156 8.53125v8.535156c0 4.710937-3.820312 8.53125-8.535156 8.53125zm51.199219 187.734375v110.933594h-38.347657c6.535157-19.621094 5.296876-41-3.464843-59.734375l-.851563-1.875v-23.722657c0-4.714843-3.824218-8.535156-8.535156-8.535156s-8.535156 3.820313-8.535156 8.535156v25.597657c.011718 1.265625.304687 2.511719.855468 3.652343l1.707032 3.609376c7.730468 16.601562 7.910156 35.730468.484375 52.472656h-176.417969c-7.851562-16.59375-7.675781-35.871094.480469-52.320313l1.800781-3.609375c.59375-1.179687.90625-2.480468.902344-3.804687l-.050782-25.652344c-.027343-4.691406-3.839843-8.480469-8.53125-8.480469h-.054687c-4.710937.027344-8.507813 3.871094-8.480469 8.585938l.050782 23.542968-.902344 1.800782c-9.261719 18.664062-10.589844 40.28125-3.679688 59.9375h-38.5625v-110.933594c.027344-23.554688 19.113282-42.640625 42.667969-42.667969h42.664063v17.066407c.039062 24.457031 14.96875 46.425781 37.695312 55.46875-2.304688 3.875-3.535156 8.292968-3.558594 12.800781 0 14.136719 11.460938 25.597656 25.597656 25.597656 14.140626 0 25.601563-11.460937 25.601563-25.597656-.027344-4.507813-1.253906-8.925781-3.558594-12.800781 22.722657-9.042969 37.652344-31.011719 37.691407-55.46875v-17.066407h42.667968c23.550782.03125 42.636719 19.117188 42.664063 42.667969zm0 0" fill="#000"/><path d="m175.105469 222.90625c-8.167969 4.070312-17.773438 4.070312-25.941407 0l-.28125-.144531c-4.160156-2.058594-9.203124-.355469-11.261718 3.808593-.015625.03125-.03125.0625-.046875.09375-2.054688 4.273438-.289063 9.402344 3.960937 11.507813 6.359375 3.175781 13.371094 4.824219 20.480469 4.824219 7.277344-.007813 14.453125-1.707032 20.964844-4.957032 4.144531-2.09375 5.8125-7.144531 3.722656-11.292968-.015625-.027344-.03125-.054688-.042969-.085938-2.1875-4.1875-7.324218-5.855468-11.554687-3.753906zm0 0" fill="#000"/></svg>
